<svg width="20" height="23" viewBox="0 0 20 23" fill="none" xmlns="http://www.w3.org/2000/svg">
<path d="M1 5.1911H3M3 5.1911H19M3 5.1911V19.1911C3 19.7215 3.21071 20.2302 3.58579 20.6053C3.96086 20.9804 4.46957 21.1911 5 21.1911H15C15.5304 21.1911 16.0391 20.9804 16.4142 20.6053C16.7893 20.2302 17 19.7215 17 19.1911V5.1911H3ZM6 5.1911V3.1911C6 2.66067 6.21071 2.15196 6.58579 1.77689C6.96086 1.40181 7.46957 1.1911 8 1.1911H12C12.5304 1.1911 13.0391 1.40181 13.4142 1.77689C13.7893 2.15196 14 2.66067 14 3.1911V5.1911M8 10.1911V16.1911M12 10.1911V16.1911" stroke="#A8A8B3" stroke-width="2" stroke-linecap="round" stroke-linejoin="round"/>
</svg>
